<svg width="35" height="34" viewBox="0 0 35 34" fill="none" xmlns="http://www.w3.org/2000/svg">
<path d="M34.4993 16.9996C34.4993 7.61107 26.8882 0 17.4997 0C8.11109 0 0.5 7.61107 0.5 16.9996C0.5 24.9718 5.98885 31.6615 13.3932 33.4988V22.1947H9.88789V16.9996H13.3932V14.7611C13.3932 8.97512 16.0119 6.29326 21.6925 6.29326C22.7696 6.29326 24.628 6.50473 25.3882 6.71553V11.4244C24.987 11.3823 24.29 11.3612 23.4244 11.3612C20.6371 11.3612 19.56 12.4172 19.56 15.1623V16.9996H25.1128L24.1588 22.1947H19.56V33.8748C27.9776 32.8582 34.5 25.6912 34.5 16.9996H34.4993Z" fill="#0866FF"/>
<path d="M24.1582 22.1949L25.1122 16.9998H19.5595V15.1625C19.5595 12.4174 20.6366 11.3614 23.4238 11.3614C24.2894 11.3614 24.9864 11.3825 25.3876 11.4246V6.71573C24.6274 6.50425 22.769 6.29346 21.6919 6.29346C16.0113 6.29346 13.3927 8.97532 13.3927 14.7613V16.9998H9.88733V22.1949H13.3927V33.499C14.7078 33.8254 16.0834 33.9994 17.4991 33.9994C18.1961 33.9994 18.8835 33.9566 19.5588 33.875V22.1949H24.1575H24.1582Z" fill="white"/>
</svg>
