<svg width="40" height="28" viewBox="0 0 40 28" fill="none" xmlns="http://www.w3.org/2000/svg">
<path d="M34.7826 0.956512C33.3989 0.956512 32.0718 1.5062 31.0934 2.48465C30.1149 3.4631 29.5652 4.79017 29.5652 6.1739C29.5626 6.9511 29.7381 7.71857 30.0783 8.41738L21.7391 16.7304C21.1531 16.5682 20.5339 16.5682 19.9478 16.7304L18.5913 15.3739C18.9405 14.6772 19.1249 13.9097 19.1304 13.1304C19.1304 11.7467 18.5807 10.4196 17.6023 9.44117C16.6238 8.46272 15.2968 7.91303 13.913 7.91303C12.5293 7.91303 11.2022 8.46272 10.2238 9.44117C9.24534 10.4196 8.69565 11.7467 8.69565 13.1304C8.69304 13.9076 8.86854 14.6751 9.2087 15.3739L4.34783 20.2087C4.06451 20.1304 3.77218 20.0895 3.47826 20.0869C2.79033 20.0869 2.11784 20.2909 1.54584 20.6731C0.973848 21.0553 0.52803 21.5986 0.264768 22.2341C0.00150706 22.8697 -0.0673741 23.5691 0.0668354 24.2438C0.201045 24.9185 0.532317 25.5383 1.01876 26.0247C1.5052 26.5112 2.12497 26.8424 2.79969 26.9766C3.4744 27.1108 4.17377 27.042 4.80934 26.7787C5.4449 26.5154 5.98813 26.0696 6.37033 25.4976C6.75253 24.9256 6.95652 24.2531 6.95652 23.5652C6.95399 23.2713 6.91307 22.979 6.83478 22.6956L11.6696 17.8609C12.3693 18.1983 13.1362 18.3735 13.913 18.3735C14.6899 18.3735 15.4568 18.1983 16.1565 17.8609L17.513 19.2174C17.4359 19.5009 17.395 19.7931 17.3913 20.0869C17.3913 21.0094 17.7578 21.8941 18.4101 22.5464C19.0624 23.1987 19.9471 23.5652 20.8696 23.5652C21.7921 23.5652 22.6768 23.1987 23.3291 22.5464C23.9814 21.8941 24.3478 21.0094 24.3478 20.0869C24.3441 19.7931 24.3032 19.5009 24.2261 19.2174L32.5391 10.913C33.2409 11.2409 34.0082 11.4045 34.7826 11.3913C36.1663 11.3913 37.4934 10.8416 38.4719 9.86316C39.4503 8.88471 40 7.55764 40 6.1739C40 4.79017 39.4503 3.4631 38.4719 2.48465C37.4934 1.5062 36.1663 0.956512 34.7826 0.956512ZM15.1391 14.3565C14.8959 14.5983 14.5867 14.7627 14.2503 14.8292C13.9139 14.8957 13.5654 14.8613 13.2485 14.7303C12.9316 14.5993 12.6605 14.3775 12.4693 14.0928C12.2781 13.8082 12.1754 13.4733 12.1739 13.1304C12.1739 12.6692 12.3571 12.2268 12.6833 11.9007C13.0094 11.5745 13.4518 11.3913 13.913 11.3913C14.3743 11.3913 14.8166 11.5745 15.1428 11.9007C15.4689 12.2268 15.6522 12.6692 15.6522 13.1304C15.6502 13.5909 15.4657 14.0319 15.1391 14.3565ZM34.7826 7.91303C34.3214 7.91303 33.879 7.7298 33.5529 7.40365C33.2267 7.0775 33.0435 6.63515 33.0435 6.1739C33.0435 5.82994 33.1455 5.49369 33.3366 5.20769C33.5277 4.92169 33.7993 4.69879 34.1171 4.56716C34.4349 4.43553 34.7845 4.40108 35.1219 4.46819C35.4593 4.53529 35.7691 4.70093 36.0124 4.94415C36.2556 5.18737 36.4212 5.49726 36.4883 5.83462C36.5554 6.17197 36.521 6.52166 36.3894 6.83944C36.2577 7.15722 36.0348 7.42884 35.7488 7.61994C35.4628 7.81104 35.1266 7.91303 34.7826 7.91303Z" fill="#5BFF74"/>
</svg>
