<svg width="25" height="24" viewBox="0 0 25 24" fill="none" xmlns="http://www.w3.org/2000/svg">
<path d="M24.9388 9.05937C24.8667 8.83773 24.734 8.64068 24.5557 8.49048C24.3775 8.34028 24.1608 8.24292 23.9301 8.20938L16.8064 7.17439L13.6215 0.719471C13.5129 0.518792 13.3504 0.352495 13.1522 0.239393C12.9541 0.126291 12.7282 0.0708973 12.5002 0.0794784V20.4292L18.8714 23.7779C19.0778 23.8865 19.3105 23.9351 19.5431 23.9183C19.7758 23.9015 19.999 23.82 20.1877 23.6829C20.3764 23.5458 20.523 23.3587 20.6109 23.1427C20.6988 22.9266 20.7245 22.6903 20.6851 22.4605L19.4689 15.3655L24.6226 10.3406C24.7896 10.1778 24.9077 9.97154 24.9636 9.74512C25.0195 9.51871 25.0109 9.28117 24.9388 9.05937Z" fill="#5BFF74" fill-opacity="0.1"/>
<path d="M11.379 0.719328L8.19401 7.17425L1.07035 8.20924C0.839478 8.24277 0.622595 8.34023 0.444239 8.49062C0.265882 8.641 0.133169 8.83829 0.0611146 9.06018C-0.0109403 9.28207 -0.0194615 9.51969 0.0365148 9.74617C0.0924912 9.97265 0.210731 10.1789 0.377858 10.3417L5.53155 15.3654L4.31531 22.4603C4.27609 22.69 4.30186 22.9261 4.38972 23.142C4.47757 23.3578 4.62401 23.5448 4.81251 23.6818C5.001 23.8188 5.22404 23.9004 5.45646 23.9174C5.68887 23.9343 5.92139 23.886 6.12779 23.7778L12.5002 20.4278V0.100586C12.0552 0.101836 11.6215 0.309333 11.379 0.719328Z" fill="#5BFF74"/>
</svg>
