<svg width="35" height="35" viewBox="0 0 35 35" fill="none" xmlns="http://www.w3.org/2000/svg">
<path d="M9.12158 34.5043C7.8065 34.4897 6.50378 34.2485 5.27062 33.7913C4.37011 33.4585 3.55537 32.9286 2.88598 32.2404C2.19591 31.5723 1.66522 30.7574 1.33333 29.856C0.876581 28.6229 0.635726 27.3203 0.621332 26.0054C0.520333 23.8194 0.5 23.1638 0.5 17.6248C0.5 12.0859 0.522333 11.4326 0.620332 9.24492C0.636473 7.93052 0.877624 6.6286 1.33333 5.39562C1.66683 4.49496 2.19677 3.6799 2.88464 3.00964C3.55321 2.32019 4.36833 1.79 5.26962 1.45833C6.50278 1.0012 7.8055 0.760008 9.12058 0.745332C11.3072 0.645333 11.9639 0.625 17.4998 0.625C23.0358 0.625 23.6921 0.647333 25.8798 0.745332C27.1945 0.761359 28.4968 1.00251 29.73 1.45833C30.6309 1.79043 31.4458 2.32045 32.1147 3.00931C32.8038 3.67838 33.334 4.49349 33.6663 5.39462C34.1236 6.62776 34.3649 7.93048 34.3797 9.24558C34.4797 11.4332 34.5 12.0882 34.5 17.6255C34.5 23.1628 34.4797 23.8178 34.3797 26.0054C34.3638 27.3203 34.1225 28.6227 33.6663 29.856C33.3213 30.7504 32.7928 31.5626 32.1148 32.2404C31.4369 32.9182 30.6245 33.4465 29.73 33.7913C28.4969 34.2486 27.1942 34.4899 25.8791 34.5047C23.6934 34.6047 23.0364 34.625 17.4992 34.625C11.9619 34.625 11.3069 34.6057 9.12125 34.5047" fill="url(#paint0_radial_60_99)"/>
<path d="M9.12158 34.5043C7.8065 34.4897 6.50378 34.2485 5.27062 33.7913C4.37011 33.4585 3.55537 32.9286 2.88598 32.2404C2.19591 31.5723 1.66522 30.7574 1.33333 29.856C0.876581 28.6229 0.635726 27.3203 0.621332 26.0054C0.520333 23.8194 0.5 23.1638 0.5 17.6248C0.5 12.0859 0.522333 11.4326 0.620332 9.24492C0.636473 7.93052 0.877624 6.6286 1.33333 5.39562C1.66683 4.49496 2.19677 3.6799 2.88464 3.00964C3.55321 2.32019 4.36833 1.79 5.26962 1.45833C6.50278 1.0012 7.8055 0.760008 9.12058 0.745332C11.3072 0.645333 11.9639 0.625 17.4998 0.625C23.0358 0.625 23.6921 0.647333 25.8798 0.745332C27.1945 0.761359 28.4968 1.00251 29.73 1.45833C30.6309 1.79043 31.4458 2.32045 32.1147 3.00931C32.8038 3.67838 33.334 4.49349 33.6663 5.39462C34.1236 6.62776 34.3649 7.93048 34.3797 9.24558C34.4797 11.4332 34.5 12.0882 34.5 17.6255C34.5 23.1628 34.4797 23.8178 34.3797 26.0054C34.3638 27.3203 34.1225 28.6227 33.6663 29.856C33.3213 30.7504 32.7928 31.5626 32.1148 32.2404C31.4369 32.9182 30.6245 33.4465 29.73 33.7913C28.4969 34.2486 27.1942 34.4899 25.8791 34.5047C23.6934 34.6047 23.0364 34.625 17.4992 34.625C11.9619 34.625 11.3069 34.6057 9.12125 34.5047" fill="url(#paint1_radial_60_99)"/>
<path d="M13.3254 17.6971C13.3255 16.8644 13.5725 16.0504 14.0352 15.358C14.4979 14.6657 15.1555 14.1261 15.9249 13.8075C16.6943 13.4889 17.5408 13.4056 18.3576 13.5681C19.1743 13.7307 19.9244 14.1318 20.5132 14.7207C21.102 15.3096 21.5029 16.0598 21.6652 16.8766C21.8276 17.6933 21.7441 18.5399 21.4253 19.3092C21.1065 20.0785 20.5668 20.736 19.8743 21.1985C19.1818 21.6611 18.3678 21.9079 17.5351 21.9077C16.4185 21.9076 15.3477 21.4638 14.5582 20.6742C13.7688 19.8846 13.3253 18.8137 13.3254 17.6971ZM11.0491 17.6971C11.0491 18.9799 11.4295 20.2339 12.1422 21.3005C12.8549 22.3671 13.8678 23.1984 15.053 23.6893C16.2381 24.1802 17.5422 24.3087 18.8004 24.0584C20.0585 23.8082 21.2142 23.1904 22.1213 22.2834C23.0284 21.3763 23.6461 20.2206 23.8964 18.9625C24.1466 17.7043 24.0182 16.4002 23.5273 15.215C23.0364 14.0299 22.205 13.0169 21.1384 12.3042C20.0718 11.5916 18.8179 11.2112 17.5351 11.2112C16.6833 11.2111 15.8399 11.3789 15.0529 11.7048C14.266 12.0307 13.551 12.5085 12.9487 13.1108C12.3464 13.713 11.8687 14.4281 11.5427 15.215C11.2168 16.0019 11.0491 16.8453 11.0491 17.6971ZM22.762 10.9542C22.7619 11.2539 22.8506 11.547 23.0171 11.7963C23.1835 12.0457 23.4201 12.24 23.697 12.3549C23.9739 12.4697 24.2787 12.4998 24.5727 12.4415C24.8667 12.3831 25.1369 12.2389 25.3489 12.027C25.561 11.8152 25.7054 11.5452 25.764 11.2512C25.8227 10.9572 25.7928 10.6524 25.6782 10.3754C25.5636 10.0984 25.3694 9.86164 25.1203 9.69499C24.8711 9.52834 24.5781 9.43932 24.2783 9.43919C23.8765 9.43936 23.4912 9.59901 23.207 9.88307C22.9228 10.1671 22.763 10.5524 22.7627 10.9542M12.4328 27.9787C11.6318 27.9699 10.8383 27.8233 10.0871 27.5453C9.54232 27.3354 9.04752 27.0136 8.63458 26.6008C8.22163 26.1881 7.89969 25.6934 7.68948 25.1487C7.4114 24.3975 7.26482 23.604 7.25615 22.8031C7.19482 21.4717 7.18282 21.0717 7.18282 17.6988C7.18282 14.3258 7.19615 13.9268 7.25615 12.5942C7.26587 11.7933 7.41242 11 7.68948 10.2485C7.89945 9.70353 8.2213 9.20861 8.63426 8.79565C9.04723 8.38268 9.54215 8.06084 10.0871 7.85086C10.8383 7.5728 11.6318 7.42622 12.4328 7.41754C13.7641 7.35621 14.1641 7.34421 17.5357 7.34421C20.9073 7.34421 21.3077 7.35721 22.6403 7.41787C23.4412 7.42759 24.2345 7.57414 24.986 7.8512C25.5309 8.06119 26.0259 8.38304 26.4388 8.796C26.8518 9.20897 27.1736 9.70388 27.3836 10.2488C27.6617 11 27.8083 11.7935 27.8169 12.5945C27.8783 13.9278 27.8903 14.3258 27.8903 17.6991C27.8903 21.0724 27.8779 21.4711 27.8169 22.8037C27.8076 23.6046 27.6611 24.398 27.3836 25.1494C27.1734 25.6941 26.8515 26.1887 26.4385 26.6015C26.0256 27.0143 25.5308 27.336 24.986 27.546C24.2348 27.8241 23.4413 27.9707 22.6403 27.9793C21.309 28.0407 20.909 28.0527 17.5357 28.0527C14.1624 28.0527 13.7638 28.0403 12.4328 27.9793M12.3281 5.14323C11.2801 5.16383 10.2431 5.3622 9.26146 5.72988C8.42231 6.05434 7.66021 6.55057 7.02403 7.18675C6.38785 7.82293 5.89162 8.58503 5.56716 9.42418C5.19953 10.4058 5.00117 11.4428 4.98051 12.4908C4.91818 13.8375 4.90417 14.2681 4.90417 17.6984C4.90417 21.1287 4.91851 21.5591 4.98051 22.9061C5.00116 23.9541 5.19952 24.991 5.56716 25.9727C5.89163 26.8118 6.38787 27.5739 7.02405 28.2101C7.66023 28.8463 8.42232 29.3425 9.26146 29.667C10.2432 30.0345 11.2801 30.2329 12.3281 30.2537C13.6754 30.315 14.1054 30.33 17.5357 30.33C20.966 30.33 21.3963 30.3157 22.7433 30.2537C23.7914 30.233 24.8283 30.0346 25.81 29.667C26.6491 29.3425 27.4112 28.8463 28.0474 28.2101C28.6836 27.5739 29.1798 26.8118 29.5043 25.9727C29.8724 24.9912 30.0708 23.9541 30.0909 22.9061C30.1523 21.5584 30.1663 21.1287 30.1663 17.6984C30.1663 14.2681 30.1519 13.8378 30.0909 12.4908C30.0703 11.4428 29.872 10.4058 29.5043 9.42418C29.1798 8.58519 28.6837 7.8232 28.0477 7.18704C27.4117 6.55088 26.6499 6.05456 25.811 5.72988C24.8294 5.36196 23.7924 5.16359 22.7443 5.14323C21.3973 5.08156 20.967 5.06689 17.5374 5.06689C14.1077 5.06689 13.6764 5.08123 12.3288 5.14323" fill="white"/>
<defs>
<radialGradient id="paint0_radial_60_99" cx="0" cy="0" r="1" gradientUnits="userSpaceOnUse" gradientTransform="translate(2.70031 33.88) scale(43.1669)">
<stop offset="0.09" stop-color="#FA8F21"/>
<stop offset="0.78" stop-color="#D82D7E"/>
</radialGradient>
<radialGradient id="paint1_radial_60_99" cx="0" cy="0" r="1" gradientUnits="userSpaceOnUse" gradientTransform="translate(24.0504 32.788) scale(37.9873)">
<stop offset="0.64" stop-color="#8C3AAA" stop-opacity="0"/>
<stop offset="1" stop-color="#8C3AAA"/>
</radialGradient>
</defs>
</svg>
