<svg width="40" height="36" viewBox="0 0 40 36" fill="none" xmlns="http://www.w3.org/2000/svg">
<path d="M34.9992 27.9997H5.00028C4.33726 27.9997 3.7014 27.7363 3.23257 27.2675C2.76375 26.7987 2.50037 26.1628 2.50037 25.4998C2.50037 24.8368 2.76375 24.2009 3.23257 23.7321C3.7014 23.2632 4.33726 22.9998 5.00028 22.9998C5.66329 22.9998 6.29916 22.7365 6.76798 22.2676C7.2368 21.7988 7.50019 21.1629 7.50019 20.4999V15.5001C7.50019 12.185 8.8171 9.00567 11.1612 6.66154C13.5053 4.31741 16.6847 3.00049 19.9997 3.00049C23.3148 3.00049 26.4941 4.31741 28.8383 6.66154C31.1824 9.00567 32.4993 12.185 32.4993 15.5001V20.4999C32.4993 21.1629 32.7627 21.7988 33.2315 22.2676C33.7003 22.7365 34.3362 22.9998 34.9992 22.9998C35.6622 22.9998 36.2981 23.2632 36.7669 23.7321C37.2357 24.2009 37.4991 24.8368 37.4991 25.4998C37.4991 26.1628 37.2357 26.7987 36.7669 27.2675C36.2981 27.7363 35.6622 27.9997 34.9992 27.9997ZM19.9997 5.50041C17.3477 5.50041 14.8042 6.55394 12.9289 8.42925C11.0536 10.3046 10.0001 12.848 10.0001 15.5001V20.4999C10.0001 21.826 9.47333 23.0977 8.53568 24.0353C7.59804 24.973 6.32631 25.4998 5.00028 25.4998H34.9992C33.6732 25.4998 32.4014 24.973 31.4638 24.0353C30.5261 23.0977 29.9994 21.826 29.9994 20.4999V15.5001C29.9994 12.848 28.9459 10.3046 27.0706 8.42925C25.1953 6.55394 22.6518 5.50041 19.9997 5.50041ZM19.9997 35.4995C18.6737 35.4995 17.402 34.9727 16.4643 34.035C15.5267 33.0974 14.9999 31.8256 14.9999 30.4996C14.9999 30.1681 15.1316 29.8502 15.366 29.6158C15.6004 29.3813 15.9184 29.2496 16.2499 29.2496C16.5814 29.2496 16.8993 29.3813 17.1337 29.6158C17.3681 29.8502 17.4998 30.1681 17.4998 30.4996C17.4998 31.1626 17.7632 31.7985 18.232 32.2673C18.7009 32.7361 19.3367 32.9995 19.9997 32.9995C20.6628 32.9995 21.2986 32.7361 21.7674 32.2673C22.2363 31.7985 22.4997 31.1626 22.4997 30.4996C22.4997 30.1681 22.6313 29.8502 22.8658 29.6158C23.1002 29.3813 23.4181 29.2496 23.7496 29.2496C24.0811 29.2496 24.399 29.3813 24.6335 29.6158C24.8679 29.8502 24.9996 30.1681 24.9996 30.4996C24.9996 31.8256 24.4728 33.0974 23.5351 34.035C22.5975 34.9727 21.3258 35.4995 19.9997 35.4995Z" fill="#5BFF74"/>
<path d="M20 5.50042C19.5056 5.50042 19.0223 5.3538 18.6112 5.07911C18.2001 4.80441 17.8796 4.41398 17.6904 3.95718C17.5012 3.50038 17.4517 2.99773 17.5482 2.51279C17.6446 2.02785 17.8827 1.58241 18.2323 1.23279C18.5819 0.88317 19.0274 0.645076 19.5123 0.548616C19.9973 0.452156 20.4999 0.501663 20.9567 0.690876C21.4135 0.880089 21.8039 1.20051 22.0786 1.61162C22.3533 2.02273 22.4999 2.50606 22.4999 3.0005C22.4999 3.66352 22.2366 4.29939 21.7677 4.76821C21.2989 5.23704 20.6631 5.50042 20 5.50042ZM36.5557 18.3063C36.3092 18.3052 36.0686 18.2314 35.864 18.0939C35.6594 17.9565 35.5 17.7617 35.4058 17.5339C35.3117 17.3062 35.2869 17.0557 35.3347 16.8139C35.3825 16.5721 35.5007 16.3499 35.6745 16.1751C36.8461 15.0031 37.5043 13.4137 37.5043 11.7565C37.5043 10.0992 36.8461 8.50987 35.6745 7.33786C35.4391 7.10415 35.3062 6.78651 35.305 6.45481C35.3039 6.12312 35.4345 5.80454 35.6682 5.56917C35.9019 5.3338 36.2196 5.20091 36.5513 5.19974C36.883 5.19856 37.2015 5.32921 37.4369 5.56292C38.2495 6.37542 38.8941 7.34002 39.3338 8.40164C39.7736 9.46327 40 10.6011 40 11.7502C40 12.8993 39.7736 14.0372 39.3338 15.0988C38.8941 16.1604 38.2495 17.125 37.4369 17.9375C37.2036 18.1723 36.8867 18.3049 36.5557 18.3063Z" fill="#5BFF74"/>
<path d="M33.8994 15.6501C33.653 15.649 33.4123 15.5751 33.2077 15.4377C33.0031 15.3003 32.8437 15.1055 32.7496 14.8777C32.6554 14.65 32.6306 14.3995 32.6784 14.1577C32.7262 13.9159 32.8445 13.6937 33.0182 13.5189C33.2506 13.2867 33.435 13.011 33.5608 12.7075C33.6866 12.404 33.7514 12.0787 33.7514 11.7502C33.7514 11.4216 33.6866 11.0963 33.5608 10.7929C33.435 10.4894 33.2506 10.2137 33.0182 9.98148C32.9021 9.86535 32.8099 9.72748 32.7471 9.57574C32.6842 9.424 32.6519 9.26137 32.6519 9.09713C32.6519 8.9329 32.6842 8.77027 32.7471 8.61853C32.8099 8.46679 32.9021 8.32892 33.0182 8.21279C33.2527 7.97824 33.5709 7.84648 33.9025 7.84648C34.0668 7.84648 34.2294 7.87883 34.3811 7.94168C34.5329 8.00453 34.6708 8.09665 34.7869 8.21279C35.7238 9.15035 36.2501 10.4216 36.2501 11.7471C36.2501 13.0725 35.7238 14.3438 34.7869 15.2813C34.6706 15.3983 34.5323 15.4911 34.38 15.5544C34.2277 15.6177 34.0644 15.6502 33.8994 15.6501ZM3.44426 18.3062C3.11328 18.3048 2.79638 18.1722 2.56304 17.9375C1.75046 17.125 1.10588 16.1604 0.666116 15.0988C0.226347 14.0371 0 12.8993 0 11.7502C0 10.6011 0.226347 9.46322 0.666116 8.4016C1.10588 7.33997 1.75046 6.37537 2.56304 5.56287C2.79758 5.32833 3.11569 5.19656 3.44738 5.19656C3.77908 5.19656 4.09718 5.32833 4.33173 5.56287C4.56627 5.79742 4.69803 6.11553 4.69803 6.44722C4.69803 6.77891 4.56627 7.09702 4.33173 7.33157C3.16007 8.50358 2.50188 10.093 2.50188 11.7502C2.50188 13.4074 3.16007 14.9968 4.33173 16.1688C4.50548 16.3436 4.62369 16.5658 4.67148 16.8076C4.71928 17.0494 4.69454 17.2999 4.60036 17.5276C4.50619 17.7554 4.34679 17.9502 4.1422 18.0876C3.93761 18.2251 3.69696 18.2989 3.45051 18.3L3.44426 18.3062Z" fill="#5BFF74"/>
<path d="M6.10058 15.65C5.7696 15.6486 5.45269 15.516 5.21936 15.2813C4.28242 14.3437 3.7561 13.0725 3.7561 11.747C3.7561 10.4216 4.28242 9.15033 5.21936 8.21277C5.4539 7.97823 5.77201 7.84647 6.1037 7.84647C6.4354 7.84647 6.7535 7.97823 6.98805 8.21277C7.22259 8.44732 7.35435 8.76543 7.35435 9.09712C7.35435 9.42881 7.22259 9.74692 6.98805 9.98147C6.75561 10.2136 6.57122 10.4894 6.44542 10.7928C6.31961 11.0963 6.25486 11.4216 6.25486 11.7502C6.25486 12.0787 6.31961 12.404 6.44542 12.7075C6.57122 13.011 6.75561 13.2867 6.98805 13.5189C7.1618 13.6936 7.28 13.9159 7.3278 14.1577C7.3756 14.3994 7.35086 14.65 7.25668 14.8777C7.16251 15.1055 7.00311 15.3003 6.79852 15.4377C6.59393 15.5751 6.35328 15.649 6.10683 15.65H6.10058Z" fill="#5BFF74"/>
</svg>
