<svg width="25" height="24" viewBox="0 0 25 24" fill="none" xmlns="http://www.w3.org/2000/svg">
<path d="M19.4529 24C19.2503 23.9995 19.0508 23.9494 18.8716 23.854L12.5 20.4821L6.12837 23.854C5.92206 23.9628 5.68966 24.0115 5.45737 23.9944C5.22508 23.9774 5.00214 23.8954 4.81368 23.7576C4.62522 23.6199 4.47875 23.4319 4.39077 23.2148C4.3028 22.9978 4.27681 22.7603 4.31576 22.5292L5.53208 15.3876L0.37677 10.3296C0.209997 10.1658 0.0920702 9.9582 0.036305 9.73041C-0.0194601 9.50263 -0.0108423 9.26369 0.0611855 9.04057C0.133213 8.81746 0.265782 8.61906 0.443923 8.46777C0.622063 8.31648 0.838679 8.21833 1.06931 8.18441L8.19349 7.14262L11.3799 0.645268C11.4947 0.448788 11.6585 0.285894 11.8551 0.172715C12.0516 0.0595369 12.2742 0 12.5006 0C12.7271 0 12.9496 0.0595369 13.1462 0.172715C13.3427 0.285894 13.5065 0.448788 13.6213 0.645268L16.8065 7.14262L23.9307 8.18441C24.1613 8.21833 24.3779 8.31648 24.5561 8.46777C24.7342 8.61906 24.8668 8.81746 24.9388 9.04057C25.0108 9.26369 25.0195 9.50263 24.9637 9.73041C24.9079 9.9582 24.79 10.1658 24.6232 10.3296L19.4679 15.3876L20.6855 22.5292C20.7162 22.7097 20.7075 22.8948 20.6598 23.0716C20.6121 23.2483 20.5266 23.4125 20.4094 23.5525C20.2921 23.6926 20.1459 23.8052 19.9809 23.8825C19.8159 23.9598 19.6349 23.9999 19.4529 24Z" fill="#5BFF74"/>
</svg>
