<svg width="40" height="38" viewBox="0 0 40 38" fill="none" xmlns="http://www.w3.org/2000/svg">
<path d="M34.9758 32.541C33.3843 34.138 31.4931 35.4052 29.4108 36.2698C27.3285 37.1345 25.096 37.5796 22.8413 37.5796C20.5867 37.5796 18.3542 37.1345 16.2719 36.2698C14.1896 35.4052 12.2984 34.138 10.7069 32.541C10.5743 32.4083 10.469 32.2509 10.3973 32.0776C10.3255 31.9043 10.2885 31.7185 10.2885 31.531C10.2885 31.3434 10.3255 31.1576 10.3973 30.9843C10.469 30.811 10.5743 30.6536 10.7069 30.5209C10.9748 30.2531 11.3381 30.1026 11.7169 30.1026C11.9045 30.1026 12.0902 30.1395 12.2635 30.2113C12.4368 30.2831 12.5943 30.3883 12.7269 30.5209C14.7233 32.5179 17.267 33.8779 20.0363 34.4291C22.8057 34.9803 25.6763 34.6979 28.2851 33.6175C30.8939 32.5371 33.1238 30.7073 34.6926 28.3596C36.2614 26.0119 37.0988 23.2516 37.0988 20.428C37.0988 17.6043 36.2614 14.844 34.6926 12.4963C33.1238 10.1486 30.8939 8.3188 28.2851 7.23843C25.6763 6.15805 22.8057 5.8756 20.0363 6.42678C17.267 6.97796 14.7233 8.33803 12.7269 10.335C12.5915 10.4676 12.4312 10.5723 12.2553 10.643C12.0794 10.7137 11.8913 10.749 11.7018 10.7471C11.5122 10.7451 11.3249 10.7058 11.1505 10.6314C10.9761 10.557 10.8181 10.449 10.6855 10.3136C10.4176 10.04 10.2694 9.67124 10.2734 9.2884C10.2754 9.09883 10.3147 8.91152 10.3891 8.73714C10.4635 8.56277 10.5714 8.40475 10.7069 8.27211C12.5181 6.46056 14.7137 5.07978 17.131 4.23206C20.8283 2.94002 24.8544 2.94002 28.5517 4.23206C30.5087 4.9228 32.323 5.96541 33.9051 7.3085C34.2691 7.60829 34.6189 7.93663 34.9544 8.27211C35.2899 8.60759 35.6182 8.9859 35.918 9.32138C38.7082 12.6017 40.1606 16.8125 39.986 21.1154C39.8114 25.4183 38.0226 29.4976 34.9758 32.541Z" fill="#5BFF74"/>
<path d="M38.1236 7.1372L35.918 9.34281C35.6182 8.98592 35.2898 8.62902 34.9758 8.27213C34.6617 7.91523 34.262 7.6083 33.9265 7.30851L36.1321 5.1029C36.4052 4.86903 36.7565 4.74682 37.1158 4.76069C37.4751 4.77457 37.8159 4.92351 38.0701 5.17776C38.3244 5.432 38.4733 5.77282 38.4872 6.13211C38.5011 6.4914 38.3789 6.84269 38.145 7.11579L38.1236 7.1372ZM27.1241 0.420441H18.5586C18.1799 0.420441 17.8168 0.570846 17.5491 0.838569C17.2814 1.10629 17.131 1.4694 17.131 1.84802V4.25349C20.8282 2.96145 24.8544 2.96145 28.5516 4.25349V1.84802C28.5516 1.4694 28.4012 1.10629 28.1335 0.838569C27.8658 0.570846 27.5027 0.420441 27.1241 0.420441ZM15.7034 21.8341H1.42758C1.04896 21.8341 0.685853 21.6837 0.418129 21.416C0.150405 21.1483 0 20.7852 0 20.4066C0 20.0279 0.150405 19.6648 0.418129 19.3971C0.685853 19.1294 1.04896 18.979 1.42758 18.979H15.7034C16.082 18.979 16.4451 19.1294 16.7129 19.3971C16.9806 19.6648 17.131 20.0279 17.131 20.4066C17.131 20.7852 16.9806 21.1483 16.7129 21.416C16.4451 21.6837 16.082 21.8341 15.7034 21.8341ZM18.5586 16.1238H4.28275C3.90413 16.1238 3.54102 15.9734 3.27329 15.7057C3.00557 15.438 2.85516 15.0749 2.85516 14.6962C2.85516 14.3176 3.00557 13.9545 3.27329 13.6868C3.54102 13.4191 3.90413 13.2687 4.28275 13.2687H18.5586C18.9372 13.2687 19.3003 13.4191 19.568 13.6868C19.8357 13.9545 19.9861 14.3176 19.9861 14.6962C19.9861 15.0749 19.8357 15.438 19.568 15.7057C19.3003 15.9734 18.9372 16.1238 18.5586 16.1238ZM18.5586 27.5445H4.28275C3.90413 27.5445 3.54102 27.394 3.27329 27.1263C3.00557 26.8586 2.85516 26.4955 2.85516 26.1169C2.85516 25.7383 3.00557 25.3751 3.27329 25.1074C3.54102 24.8397 3.90413 24.6893 4.28275 24.6893H18.5586C18.9372 24.6893 19.3003 24.8397 19.568 25.1074C19.8357 25.3751 19.9861 25.7383 19.9861 26.1169C19.9861 26.4955 19.8357 26.8586 19.568 27.1263C19.3003 27.394 18.9372 27.5445 18.5586 27.5445ZM29.5581 15.7027L25.5965 19.6928C25.6599 19.9255 25.6935 20.1654 25.6965 20.4066C25.6965 20.9713 25.529 21.5233 25.2153 21.9928C24.9016 22.4623 24.4557 22.8283 23.9339 23.0444C23.4122 23.2605 22.8381 23.317 22.2843 23.2069C21.7304 23.0967 21.2217 22.8248 20.8224 22.4255C20.4231 22.0262 20.1512 21.5174 20.041 20.9636C19.9308 20.4097 19.9874 19.8356 20.2035 19.3139C20.4196 18.7922 20.7855 18.3463 21.2551 18.0326C21.7246 17.7188 22.2766 17.5514 22.8413 17.5514C23.0825 17.5544 23.3223 17.588 23.5551 17.6513L27.5166 13.6898C27.7897 13.4559 28.141 13.3337 28.5003 13.3476C28.8596 13.3615 29.2004 13.5104 29.4547 13.7647C29.7089 14.0189 29.8579 14.3597 29.8717 14.719C29.8856 15.0783 29.7634 15.4296 29.5295 15.7027H29.5581Z" fill="#5BFF74"/>
</svg>
