<svg width="40" height="38" viewBox="0 0 40 38" fill="none" xmlns="http://www.w3.org/2000/svg">
<path d="M35 37.3334H5C3.67392 37.3334 2.40215 36.8066 1.46447 35.8689C0.526784 34.9312 0 33.6594 0 32.3334V9.00004C0 8.55801 0.175595 8.13409 0.488156 7.82153C0.800716 7.50897 1.22464 7.33337 1.66667 7.33337H38.3333C38.7754 7.33337 39.1993 7.50897 39.5118 7.82153C39.8244 8.13409 40 8.55801 40 9.00004V32.3334C40 33.6594 39.4732 34.9312 38.5355 35.8689C37.5979 36.8066 36.3261 37.3334 35 37.3334ZM3.33333 10.6667V32.3334C3.33333 32.7754 3.50893 33.1993 3.82149 33.5119C4.13405 33.8244 4.55797 34 5 34H35C35.442 34 35.866 33.8244 36.1785 33.5119C36.4911 33.1993 36.6667 32.7754 36.6667 32.3334V10.6667H3.33333Z" fill="#5BFF74"/>
<path d="M28.3333 10.6667C27.8913 10.6667 27.4674 10.4911 27.1548 10.1785C26.8423 9.86597 26.6667 9.44204 26.6667 9.00002V5.66668C26.6667 5.22466 26.4911 4.80073 26.1785 4.48817C25.866 4.17561 25.442 4.00002 25 4.00002H15C14.558 4.00002 14.134 4.17561 13.8215 4.48817C13.5089 4.80073 13.3333 5.22466 13.3333 5.66668V9.00002C13.3333 9.44204 13.1577 9.86597 12.8452 10.1785C12.5326 10.4911 12.1087 10.6667 11.6667 10.6667C11.2246 10.6667 10.8007 10.4911 10.4882 10.1785C10.1756 9.86597 10 9.44204 10 9.00002V5.66668C10 4.3406 10.5268 3.06883 11.4645 2.13115C12.4021 1.19347 13.6739 0.666687 15 0.666687H25C26.3261 0.666687 27.5979 1.19347 28.5355 2.13115C29.4732 3.06883 30 4.3406 30 5.66668V9.00002C30 9.44204 29.8244 9.86597 29.5118 10.1785C29.1993 10.4911 28.7754 10.6667 28.3333 10.6667Z" fill="#5BFF74"/>
<path d="M20 30.6667C14.6957 30.6667 9.60859 28.5596 5.85786 24.8088C2.10714 21.0581 0 15.971 0 10.6667V9.00004C0 8.55801 0.175595 8.13409 0.488156 7.82153C0.800716 7.50897 1.22464 7.33337 1.66667 7.33337H38.3333C38.7754 7.33337 39.1993 7.50897 39.5118 7.82153C39.8244 8.13409 40 8.55801 40 9.00004V10.6667C40 15.971 37.8929 21.0581 34.1421 24.8088C30.3914 28.5596 25.3043 30.6667 20 30.6667ZM3.33333 10.6667C3.33333 15.087 5.08928 19.3262 8.21489 22.4518C11.3405 25.5774 15.5797 27.3334 20 27.3334C24.4203 27.3334 28.6595 25.5774 31.7851 22.4518C34.9107 19.3262 36.6667 15.087 36.6667 10.6667H3.33333Z" fill="#5BFF74"/>
</svg>
