<svg width="35" height="25" viewBox="0 0 35 25" fill="none" xmlns="http://www.w3.org/2000/svg">
<path d="M33.7891 4.365C33.5969 3.64167 33.218 2.98151 32.6905 2.4506C32.163 1.91968 31.5053 1.53663 30.7832 1.33977C28.125 0.625 17.5 0.625 17.5 0.625C17.5 0.625 6.875 0.625 4.21682 1.33977C3.49473 1.53663 2.83702 1.91968 2.30949 2.4506C1.78196 2.98151 1.40313 3.64167 1.21091 4.365C0.5 7.03477 0.5 12.6023 0.5 12.6023C0.5 12.6023 0.5 18.1698 1.21091 20.8395C1.40313 21.5629 1.78196 22.223 2.30949 22.7539C2.83702 23.2849 3.49473 23.6679 4.21682 23.8648C6.875 24.5795 17.5 24.5795 17.5 24.5795C17.5 24.5795 28.125 24.5795 30.7832 23.8648C31.5053 23.6679 32.163 23.2849 32.6905 22.7539C33.218 22.223 33.5969 21.5629 33.7891 20.8395C34.5 18.1698 34.5 12.6023 34.5 12.6023C34.5 12.6023 34.5 7.03477 33.7891 4.365Z" fill="#FF0302"/>
<path d="M14.0228 17.658V7.54688L22.9092 12.6024L14.0228 17.658Z" fill="#FEFEFE"/>
</svg>
